          Sandhya Deeper Shikha 1964 - DVD Rip - XviD - Mp3 - 1Cd [DXR]

=-=-=-=-=-=-=-=-=-=-=-=-=-=-=-=-=-=-=-=-=-=-=-=-=-=-=-=-=-=-=-=-=-=-=-=-=-=-=-=-=-


                              ** Cast And Crew **
=-=-=-=-=-=-=-=-=-=-=-=-=-=-=-=-=-=-=-=-=-=-=-=-=-=-=-=-=-=-=-=-=-=-=-=-=-=-=-=-=-

Language: Bengali

Release Date: 2 October 1964

Genre: War

Director: Haridas Bhattacharya

Editor: Santosh Ganguli

Writer: Haridas Bhattacharya, Tarun Kumar Bhadury

Actors
Anil Chatterjee - Captain Aftab
Bikash Roy - Major Anupam Bannerjee
Dilip Mukherjee - Tarun Mukherjee
Kamal Mitra

Actresses
Suchitra Sen - Jayanti Bannerjee

=-=-=-=-=-=-=-=-=-=-=-=-=-=-=-=-=-=-=-=-=-=-=-=-=-=-=-=-=-=-=-=-=-=-=-=-=-=-=-=-=-


                          ** File Information **

=-=-=-=-=-=-=-=-=-=-=-=-=-=-=-=-=-=-=-=-=-=-=-=-=-=-=-=-=-=-=-=-=-=-=-=-=-=-=-=-=-

General
Complete name                    : [DXR] Sandhya Deeper Shikha 1964 - DVD Rip - XviD - Mp3 - 1Cd -=K4K=-.avi
Format                           : AVI
Format/Info                      : Audio Video Interleave
File size                        : 694 MiB
Duration                         : 2h 6mn
Overall bit rate                 : 766 Kbps
Writing application              : VirtualDubMod 1.5.4.1 (build 2178/release)
Writing library                  : VirtualDubMod build 2178/release

Video
ID                               : 0
Format                           : MPEG-4 Visual
Format profile                   : Advanced Simple@L5
Format settings, BVOP            : Yes
Format settings, QPel            : No
Format settings, GMC             : No warppoints
Format settings, Matrix          : Custom
Codec ID                         : XVID
Codec ID/Hint                    : XviD
Duration                         : 2h 6mn
Bit rate                         : 678 Kbps
Width                            : 672 pixels
Height                           : 512 pixels
Display aspect ratio             : 4:3
Frame rate                       : 25.000 fps
Resolution                       : 8 bits
Colorimetry                      : 4:2:0
Scan type                        : Progressive
Bits/(Pixel*Frame)               : 0.079
Stream size                      : 614 MiB (88%)
Writing library                  : XviD 1.2.1 (UTC 2008-12-04)

Audio
ID                               : 1
Format                           : MPEG Audio
Format version                   : Version 1
Format profile                   : Layer 3
Format_Settings_Mode             : Joint stereo
Format_Settings_ModeExtension    : MS Stereo
Codec ID                         : 55
Codec ID/Hint                    : MP3
Duration                         : 2h 6mn
Bit rate mode                    : Variable
Bit rate                         : 78.1 Kbps
Nominal bit rate                 : 96.0 Kbps
Channel(s)                       : 2 channels
Sampling rate                    : 32.0 KHz
Stream size                      : 70.8 MiB (10%)
Alignment                        : Aligned on interleaves
Interleave, duration             : 36 ms (0.90 video frame)
Interleave, preload duration     : 552 ms
Writing library                  : LAME3.97 
Encoding settings                : -m j -V 4 -q 2 -lowpass 15.1 --abr 96



=-=-=-=-=-=-=-=-=-=-=-=-=-=-=-=-=-=-=-=-=-=-=-=-=-=-=-=-=-=-=-=-=-=-=-=-=-=-=-=-=-


                             ** Screenshots **

=-=-=-=-=-=-=-=-=-=-=-=-=-=-=-=-=-=-=-=-=-=-=-=-=-=-=-=-=-=-=-=-=-=-=-=-=-=-=-=-=-

 
http://img203.imageshack.us/img203/5194/vlcsnap2010082411h15m10.png
 
http://img291.imageshack.us/img291/4716/vlcsnap2010082411h16m03.png
 
http://img716.imageshack.us/img716/6733/vlcsnap2010082411h16m27.png
 
http://img44.imageshack.us/img44/2717/vlcsnap2010082411h16m39.png
 
http://img835.imageshack.us/img835/2179/vlcsnap2010082411h16m44.png
 
http://img651.imageshack.us/img651/126/vlcsnap2010082411h16m54.png
 
http://img828.imageshack.us/img828/4500/vlcsnap2010082411h17m10.png
 
http://img836.imageshack.us/img836/231/vlcsnap2010082411h17m55.png
